<mxfile host="app.diagrams.net" modified="2023-08-26T15:26:46.833Z" agent="Mozilla/5.0 (Macintosh; Intel Mac OS X 10_15_7) AppleWebKit/537.36 (KHTML, like Gecko) Chrome/115.0.0.0 Safari/537.36" etag="h9qX8c40OuFBVgSTVXm3" version="21.6.6" type="github" pages="2">
  <diagram name="启动应用" id="hbDIUZT85K4QuJ_lc52K">
    <mxGraphModel dx="1434" dy="765" grid="1" gridSize="10" guides="1" tooltips="1" connect="1" arrows="1" fold="1" page="1" pageScale="1" pageWidth="827" pageHeight="1169" math="0" shadow="0">
      <root>
        <mxCell id="0" />
        <mxCell id="1" parent="0" />
        <mxCell id="RJk8d5wRWD8ql-M5LWtv-1" value="pnpm bootstrap [...app]" style="edgeStyle=orthogonalEdgeStyle;rounded=0;orthogonalLoop=1;jettySize=auto;html=1;startArrow=none;fontSize=16;fontFamily=微软雅黑;" parent="1" source="RJk8d5wRWD8ql-M5LWtv-7" target="RJk8d5wRWD8ql-M5LWtv-6" edge="1">
          <mxGeometry relative="1" as="geometry">
            <mxPoint x="-20" y="240" as="targetPoint" />
          </mxGeometry>
        </mxCell>
        <mxCell id="RJk8d5wRWD8ql-M5LWtv-2" style="edgeStyle=orthogonalEdgeStyle;rounded=0;orthogonalLoop=1;jettySize=auto;html=1;fontSize=16;fontFamily=微软雅黑;" parent="1" source="RJk8d5wRWD8ql-M5LWtv-3" target="RJk8d5wRWD8ql-M5LWtv-7" edge="1">
          <mxGeometry relative="1" as="geometry" />
        </mxCell>
        <mxCell id="RJk8d5wRWD8ql-M5LWtv-3" value="开发" style="shape=umlActor;verticalLabelPosition=bottom;verticalAlign=top;html=1;outlineConnect=0;fontSize=16;fontFamily=微软雅黑;" parent="1" vertex="1">
          <mxGeometry x="30" y="80" width="30" height="60" as="geometry" />
        </mxCell>
        <mxCell id="RJk8d5wRWD8ql-M5LWtv-4" style="rounded=0;orthogonalLoop=1;jettySize=auto;html=1;entryX=0.25;entryY=0;entryDx=0;entryDy=0;strokeWidth=1;fontSize=16;endArrow=classic;endFill=1;dashed=1;fontFamily=微软雅黑;" parent="1" source="RJk8d5wRWD8ql-M5LWtv-6" target="RJk8d5wRWD8ql-M5LWtv-13" edge="1">
          <mxGeometry relative="1" as="geometry" />
        </mxCell>
        <mxCell id="RJk8d5wRWD8ql-M5LWtv-5" value="写入" style="edgeLabel;html=1;align=center;verticalAlign=middle;resizable=0;points=[];fontSize=16;fontFamily=微软雅黑;" parent="RJk8d5wRWD8ql-M5LWtv-4" vertex="1" connectable="0">
          <mxGeometry x="0.1826" y="-3" relative="1" as="geometry">
            <mxPoint as="offset" />
          </mxGeometry>
        </mxCell>
        <mxCell id="RJk8d5wRWD8ql-M5LWtv-6" value="执行 bootstrap.sh" style="rounded=0;whiteSpace=wrap;html=1;fontSize=16;fontFamily=微软雅黑;" parent="1" vertex="1">
          <mxGeometry x="130" y="210" width="120" height="60" as="geometry" />
        </mxCell>
        <mxCell id="RJk8d5wRWD8ql-M5LWtv-7" value="appName" style="verticalLabelPosition=middle;verticalAlign=middle;html=1;shape=trapezoid;perimeter=trapezoidPerimeter;whiteSpace=wrap;size=0.23;arcSize=10;flipV=1;labelPosition=center;align=center;fontSize=16;fontFamily=微软雅黑;" parent="1" vertex="1">
          <mxGeometry x="125" y="75" width="130" height="70" as="geometry" />
        </mxCell>
        <mxCell id="RJk8d5wRWD8ql-M5LWtv-8" value="启动" style="edgeStyle=orthogonalEdgeStyle;rounded=0;orthogonalLoop=1;jettySize=auto;html=1;fontSize=16;fontFamily=微软雅黑;" parent="1" source="RJk8d5wRWD8ql-M5LWtv-6" target="RJk8d5wRWD8ql-M5LWtv-10" edge="1">
          <mxGeometry relative="1" as="geometry">
            <mxPoint x="190" y="390" as="sourcePoint" />
          </mxGeometry>
        </mxCell>
        <mxCell id="RJk8d5wRWD8ql-M5LWtv-9" style="edgeStyle=none;rounded=0;orthogonalLoop=1;jettySize=auto;html=1;strokeWidth=1;fontSize=16;endArrow=classic;endFill=1;fontFamily=微软雅黑;" parent="1" source="RJk8d5wRWD8ql-M5LWtv-10" target="RJk8d5wRWD8ql-M5LWtv-15" edge="1">
          <mxGeometry relative="1" as="geometry" />
        </mxCell>
        <mxCell id="RJk8d5wRWD8ql-M5LWtv-10" value="对应的应用" style="whiteSpace=wrap;html=1;rounded=0;fontSize=16;fontFamily=微软雅黑;" parent="1" vertex="1">
          <mxGeometry x="130" y="350" width="120" height="60" as="geometry" />
        </mxCell>
        <mxCell id="RJk8d5wRWD8ql-M5LWtv-11" style="edgeStyle=orthogonalEdgeStyle;rounded=0;orthogonalLoop=1;jettySize=auto;html=1;endArrow=none;endFill=0;strokeWidth=2;fontSize=16;fontFamily=微软雅黑;" parent="1" source="RJk8d5wRWD8ql-M5LWtv-12" target="RJk8d5wRWD8ql-M5LWtv-6" edge="1">
          <mxGeometry relative="1" as="geometry" />
        </mxCell>
        <mxCell id="RJk8d5wRWD8ql-M5LWtv-12" value="&lt;p style=&quot;line-height: 160%; font-size: 16px;&quot;&gt;获取本机 IP&lt;br style=&quot;font-size: 16px;&quot;&gt;生成 VUE_APP_MICRO&lt;br style=&quot;font-size: 16px;&quot;&gt;给子应用分配端口 APP_PORT&lt;br style=&quot;font-size: 16px;&quot;&gt;拼接 pnpm --filter=appName run dev&lt;/p&gt;" style="strokeWidth=2;html=1;shape=mxgraph.flowchart.annotation_2;align=left;labelPosition=right;pointerEvents=1;fontSize=16;fontFamily=微软雅黑;" parent="1" vertex="1">
          <mxGeometry x="290" y="190" width="50" height="100" as="geometry" />
        </mxCell>
        <mxCell id="RJk8d5wRWD8ql-M5LWtv-13" value=".env.local" style="shape=image;html=1;verticalAlign=top;verticalLabelPosition=bottom;labelBackgroundColor=#ffffff;imageAspect=0;aspect=fixed;image=https://cdn3.iconfinder.com/data/icons/user-interface-169/32/dicument-128.png;fontSize=16;fontFamily=微软雅黑;" parent="1" vertex="1">
          <mxGeometry x="350" y="355" width="50" height="50" as="geometry" />
        </mxCell>
        <mxCell id="RJk8d5wRWD8ql-M5LWtv-14" style="edgeStyle=none;rounded=0;orthogonalLoop=1;jettySize=auto;html=1;strokeWidth=1;fontSize=16;endArrow=classic;endFill=1;fontFamily=微软雅黑;" parent="1" source="RJk8d5wRWD8ql-M5LWtv-15" target="RJk8d5wRWD8ql-M5LWtv-19" edge="1">
          <mxGeometry relative="1" as="geometry">
            <mxPoint x="190" y="590" as="targetPoint" />
          </mxGeometry>
        </mxCell>
        <mxCell id="RJk8d5wRWD8ql-M5LWtv-15" value="接入应用列表" style="whiteSpace=wrap;html=1;fontSize=16;fontFamily=微软雅黑;rounded=0;" parent="1" vertex="1">
          <mxGeometry x="130" y="460" width="120" height="60" as="geometry" />
        </mxCell>
        <mxCell id="RJk8d5wRWD8ql-M5LWtv-16" value="" style="shape=image;html=1;verticalAlign=top;verticalLabelPosition=bottom;labelBackgroundColor=#ffffff;imageAspect=0;aspect=fixed;image=https://cdn4.iconfinder.com/data/icons/ionicons/512/icon-ios7-plus-empty-128.png;fontSize=16;fontFamily=微软雅黑;" parent="1" vertex="1">
          <mxGeometry x="270" y="350" width="60" height="60" as="geometry" />
        </mxCell>
        <mxCell id="RJk8d5wRWD8ql-M5LWtv-17" value="" style="shape=singleArrow;whiteSpace=wrap;html=1;arrowWidth=0.4;arrowSize=0.4;fontSize=16;verticalAlign=top;labelBackgroundColor=#ffffff;fontFamily=微软雅黑;" parent="1" vertex="1">
          <mxGeometry x="420" y="364" width="40" height="32" as="geometry" />
        </mxCell>
        <mxCell id="RJk8d5wRWD8ql-M5LWtv-18" value="&lt;span style=&quot;color: rgb(0, 0, 0); font-size: 16px; font-style: normal; font-variant-ligatures: normal; font-variant-caps: normal; letter-spacing: normal; orphans: 2; text-align: center; text-indent: 0px; text-transform: none; widows: 2; word-spacing: 0px; -webkit-text-stroke-width: 0px; background-color: rgb(255, 255, 255); text-decoration-thickness: initial; text-decoration-style: initial; text-decoration-color: initial; float: none; display: inline !important;&quot;&gt;https://ip:port/&lt;br style=&quot;font-size: 16px;&quot;&gt;&lt;/span&gt;" style="text;whiteSpace=wrap;html=1;fontSize=16;fontStyle=1;fontFamily=微软雅黑;" parent="1" vertex="1">
          <mxGeometry x="480" y="366" width="130" height="28" as="geometry" />
        </mxCell>
        <mxCell id="RJk8d5wRWD8ql-M5LWtv-19" value="结束" style="ellipse;whiteSpace=wrap;html=1;fontSize=16;fontFamily=微软雅黑;" parent="1" vertex="1">
          <mxGeometry x="145" y="554.5" width="90" height="60" as="geometry" />
        </mxCell>
      </root>
    </mxGraphModel>
  </diagram>
  <diagram id="c3QG5h15V_xBL_wiGVRl" name="本地开发环境">
    <mxGraphModel dx="1434" dy="765" grid="1" gridSize="10" guides="1" tooltips="1" connect="1" arrows="1" fold="1" page="1" pageScale="1" pageWidth="827" pageHeight="1169" math="0" shadow="0">
      <root>
        <mxCell id="0" />
        <mxCell id="1" parent="0" />
        <mxCell id="5LI_pydah08SIQdUVhyj-1" value="443" style="shape=image;html=1;verticalAlign=top;verticalLabelPosition=bottom;labelBackgroundColor=#ffffff;imageAspect=0;aspect=fixed;image=https://cdn1.iconfinder.com/data/icons/ionicons-fill-vol-2/512/logo-nodejs-128.png;fontSize=16;" vertex="1" parent="1">
          <mxGeometry x="460" y="110" width="60" height="60" as="geometry" />
        </mxCell>
        <mxCell id="PIJ4ZpdSDfOjswG4X4ez-3" value="启动" style="edgeStyle=orthogonalEdgeStyle;rounded=0;orthogonalLoop=1;jettySize=auto;html=1;fontSize=16;" edge="1" parent="1" source="PIJ4ZpdSDfOjswG4X4ez-1" target="PIJ4ZpdSDfOjswG4X4ez-2">
          <mxGeometry relative="1" as="geometry" />
        </mxCell>
        <mxCell id="PIJ4ZpdSDfOjswG4X4ez-1" value="开发" style="shape=umlActor;verticalLabelPosition=bottom;verticalAlign=top;html=1;outlineConnect=0;fontSize=16;" vertex="1" parent="1">
          <mxGeometry x="70" y="200" width="30" height="60" as="geometry" />
        </mxCell>
        <mxCell id="PIJ4ZpdSDfOjswG4X4ez-4" style="edgeStyle=orthogonalEdgeStyle;rounded=0;orthogonalLoop=1;jettySize=auto;html=1;entryX=0;entryY=0.5;entryDx=0;entryDy=0;fontSize=16;" edge="1" parent="1" source="PIJ4ZpdSDfOjswG4X4ez-2" target="5LI_pydah08SIQdUVhyj-1">
          <mxGeometry relative="1" as="geometry" />
        </mxCell>
        <mxCell id="PIJ4ZpdSDfOjswG4X4ez-6" style="edgeStyle=orthogonalEdgeStyle;rounded=0;orthogonalLoop=1;jettySize=auto;html=1;entryX=0;entryY=0.5;entryDx=0;entryDy=0;fontSize=16;" edge="1" parent="1" source="PIJ4ZpdSDfOjswG4X4ez-2" target="PIJ4ZpdSDfOjswG4X4ez-5">
          <mxGeometry relative="1" as="geometry" />
        </mxCell>
        <mxCell id="PIJ4ZpdSDfOjswG4X4ez-8" style="edgeStyle=orthogonalEdgeStyle;rounded=0;orthogonalLoop=1;jettySize=auto;html=1;entryX=0;entryY=0.5;entryDx=0;entryDy=0;fontSize=16;" edge="1" parent="1" source="PIJ4ZpdSDfOjswG4X4ez-2" target="PIJ4ZpdSDfOjswG4X4ez-7">
          <mxGeometry relative="1" as="geometry" />
        </mxCell>
        <mxCell id="PIJ4ZpdSDfOjswG4X4ez-2" value="服务" style="whiteSpace=wrap;html=1;verticalAlign=middle;fontSize=16;" vertex="1" parent="1">
          <mxGeometry x="220" y="200" width="120" height="60" as="geometry" />
        </mxCell>
        <mxCell id="PIJ4ZpdSDfOjswG4X4ez-5" value="10000" style="shape=image;html=1;verticalAlign=top;verticalLabelPosition=bottom;labelBackgroundColor=#ffffff;imageAspect=0;aspect=fixed;image=https://cdn1.iconfinder.com/data/icons/ionicons-fill-vol-2/512/logo-nodejs-128.png;fontSize=16;" vertex="1" parent="1">
          <mxGeometry x="460" y="200" width="60" height="60" as="geometry" />
        </mxCell>
        <mxCell id="PIJ4ZpdSDfOjswG4X4ez-7" value="10000 + x" style="shape=image;html=1;verticalAlign=top;verticalLabelPosition=bottom;labelBackgroundColor=#ffffff;imageAspect=0;aspect=fixed;image=https://cdn1.iconfinder.com/data/icons/ionicons-fill-vol-2/512/logo-nodejs-128.png;fontSize=16;" vertex="1" parent="1">
          <mxGeometry x="460" y="290" width="60" height="60" as="geometry" />
        </mxCell>
      </root>
    </mxGraphModel>
  </diagram>
</mxfile>
